<svg baseProfile="full" width="300" height="300" viewBox="0 0 300 300" version="1.1" xmlns="http://www.w3.org/2000/svg" xmlns:ev="http://www.w3.org/2001/xml-events" xmlns:xlink="http://www.w3.org/1999/xlink">

<style>rect.s{mask:url(#mask);}</style>
<defs>
  <pattern id="white" width="4" height="4" patternUnits="userSpaceOnUse" patternTransform="rotate(45)">
    <rect width="2" height="2" transform="translate(0,0)" fill="white"/>
  </pattern>
  <mask id="mask">
    <rect x="0" y="0" width="100%" height="100%" fill="url(#white)"/>
  </mask>
</defs>

<circle cx="150.0" cy="150.0" fill="#a4ad17" r="35.625" stroke="white" stroke-width="1"/>
<path d="M 150.0 185.625 L 150.0 221.25 A 71.25 71.25 0 0 0 212.97075846 116.66464221 L 181.48537923 133.332321105 A 35.625 35.625 0 0 1 150.0 185.625 z" fill="#a2b511" stroke="white" stroke-width="1"/>
<path d="M 150.0 221.25 L 150.0 256.875 A 106.875 106.875 0 0 0 165.206167441 255.787702956 L 160.137444961 220.525135304 A 71.25 71.25 0 0 1 150.0 221.25 z" fill="#e05d44" stroke="white" stroke-width="1"/>
<path d="M 160.137444961 220.525135304 L 165.206167441 255.787702956 A 106.875 106.875 0 0 0 171.73906642 254.64071204 L 164.492710947 219.760474693 A 71.25 71.25 0 0 1 160.137444961 220.525135304 z" fill="#9cc206" stroke="white" stroke-width="1"/>
<path d="M 164.492710947 219.760474693 L 171.73906642 254.64071204 A 106.875 106.875 0 0 0 176.102967954 253.638316703 L 167.401978636 219.092211135 A 71.25 71.25 0 0 1 164.492710947 219.760474693 z" fill="#e05d44" stroke="white" stroke-width="1"/>
<path d="M 171.73906642 254.64071204 L 178.985421893 289.520949386 A 142.5 142.5 0 0 0 184.589482672 288.238264198 L 175.942112004 253.678698149 A 106.875 106.875 0 0 1 171.73906642 254.64071204 z" fill="#e05d44" stroke="white" stroke-width="1"/>
<path d="M 175.942112004 253.678698149 L 184.589482672 288.238264198 A 142.5 142.5 0 0 0 184.803957272 288.18442227 L 176.102967954 253.638316703 A 106.875 106.875 0 0 1 175.942112004 253.678698149 z" fill="#4c1" stroke="white" stroke-width="1"/>
<path d="M 167.401978636 219.092211135 L 176.102967954 253.638316703 A 106.875 106.875 0 0 0 179.943765063 252.594524995 L 169.962510042 218.396349996 A 71.25 71.25 0 0 1 167.401978636 219.092211135 z" fill="#4c1" stroke="white" stroke-width="1"/>
<path d="M 169.962510042 218.396349996 L 179.943765063 252.594524995 A 106.875 106.875 0 0 0 180.897682427 252.311284058 L 170.598454952 218.207522705 A 71.25 71.25 0 0 1 169.962510042 218.396349996 z" fill="#d3b319" stroke="white" stroke-width="1"/>
<path d="M 170.598454952 218.207522705 L 180.897682427 252.311284058 A 106.875 106.875 0 0 0 182.007194917 251.969628314 L 171.338129944 217.97975221 A 71.25 71.25 0 0 1 170.598454952 218.207522705 z" fill="#4c1" stroke="white" stroke-width="1"/>
<path d="M 171.338129944 217.97975221 L 182.007194917 251.969628314 A 106.875 106.875 0 0 0 191.501839626 248.487882161 L 177.667893084 215.658588108 A 71.25 71.25 0 0 1 171.338129944 217.97975221 z" fill="#70cb07" stroke="white" stroke-width="1"/>
<path d="M 177.667893084 215.658588108 L 191.501839626 248.487882161 A 106.875 106.875 0 0 0 200.916769347 243.966739989 L 183.944512898 212.644493326 A 71.25 71.25 0 0 1 177.667893084 215.658588108 z" fill="#98c802" stroke="white" stroke-width="1"/>
<path d="M 183.944512898 212.644493326 L 200.916769347 243.966739989 A 106.875 106.875 0 0 0 218.965765625 231.645506899 L 195.977177083 204.430337933 A 71.25 71.25 0 0 1 183.944512898 212.644493326 z" fill="#97ca00" stroke="white" stroke-width="1"/>
<path d="M 200.916769347 243.966739989 L 217.889025797 275.288986652 A 142.5 142.5 0 0 0 218.471553471 274.971582231 L 201.353665103 243.728686673 A 106.875 106.875 0 0 1 200.916769347 243.966739989 z" fill="#4c1" stroke="white" stroke-width="1"/>
<path d="M 201.353665103 243.728686673 L 218.471553471 274.971582231 A 142.5 142.5 0 0 0 225.342560373 270.953497661 L 206.506920279 240.715123246 A 106.875 106.875 0 0 1 201.353665103 243.728686673 z" fill="#9fbc0b" stroke="white" stroke-width="1"/>
<path d="M 206.506920279 240.715123246 L 225.342560373 270.953497661 A 142.5 142.5 0 0 0 229.24343664 268.434487163 L 209.43257748 238.825865372 A 106.875 106.875 0 0 1 206.506920279 240.715123246 z" fill="#4c1" stroke="white" stroke-width="1"/>
<path d="M 209.43257748 238.825865372 L 229.24343664 268.434487163 A 142.5 142.5 0 0 0 241.954354167 258.860675865 L 218.965765625 231.645506899 A 106.875 106.875 0 0 1 209.43257748 238.825865372 z" fill="#9bc405" stroke="white" stroke-width="1"/>
<path d="M 195.977177083 204.430337933 L 218.965765625 231.645506899 A 106.875 106.875 0 0 0 225.557376855 225.58669478 L 200.37158457 200.391129853 A 71.25 71.25 0 0 1 195.977177083 204.430337933 z" fill="#a2b710" stroke="white" stroke-width="1"/>
<path d="M 218.965765625 231.645506899 L 241.954354167 258.860675865 A 142.5 142.5 0 0 0 244.958803801 256.250061556 L 221.21910285 229.687546167 A 106.875 106.875 0 0 1 218.965765625 231.645506899 z" fill="#a4aa1a" stroke="white" stroke-width="1"/>
<path d="M 221.21910285 229.687546167 L 244.958803801 256.250061556 A 142.5 142.5 0 0 0 245.12356686 256.102577857 L 221.342675145 229.576933393 A 106.875 106.875 0 0 1 221.21910285 229.687546167 z" fill="#4c1" stroke="white" stroke-width="1"/>
<path d="M 221.342675145 229.576933393 L 245.12356686 256.102577857 A 142.5 142.5 0 0 0 246.2704724 255.063057941 L 222.2028543 228.797293456 A 106.875 106.875 0 0 1 221.342675145 229.576933393 z" fill="#baaf1b" stroke="white" stroke-width="1"/>
<path d="M 222.2028543 228.797293456 L 246.2704724 255.063057941 A 142.5 142.5 0 0 0 249.48429762 252.025117138 L 224.613223215 226.518837853 A 106.875 106.875 0 0 1 222.2028543 228.797293456 z" fill="#a3b114" stroke="white" stroke-width="1"/>
<path d="M 224.613223215 226.518837853 L 249.48429762 252.025117138 A 142.5 142.5 0 0 0 250.74316914 250.782259707 L 225.557376855 225.58669478 A 106.875 106.875 0 0 1 224.613223215 226.518837853 z" fill="#4c1" stroke="white" stroke-width="1"/>
<path d="M 200.37158457 200.391129853 L 225.557376855 225.58669478 A 106.875 106.875 0 0 0 230.100632874 220.754181772 L 203.400421916 197.169454515 A 71.25 71.25 0 0 1 200.37158457 200.391129853 z" fill="#a3b114" stroke="white" stroke-width="1"/>
<path d="M 203.400421916 197.169454515 L 230.100632874 220.754181772 A 106.875 106.875 0 0 0 234.538711271 215.387092929 L 206.359140847 193.591395286 A 71.25 71.25 0 0 1 203.400421916 197.169454515 z" fill="#4c1" stroke="white" stroke-width="1"/>
<path d="M 206.359140847 193.591395286 L 234.538711271 215.387092929 A 106.875 106.875 0 0 0 236.91473024 212.194013315 L 207.943153494 191.462675543 A 71.25 71.25 0 0 1 206.359140847 193.591395286 z" fill="#f39a21" stroke="white" stroke-width="1"/>
<path d="M 207.943153494 191.462675543 L 236.91473024 212.194013315 A 106.875 106.875 0 0 0 256.87267573 150.704845613 L 221.248450487 150.469897075 A 71.25 71.25 0 0 1 207.943153494 191.462675543 z" fill="#a4ad17" stroke="white" stroke-width="1"/>
<path d="M 236.91473024 212.194013315 L 265.886306987 232.925351087 A 142.5 142.5 0 0 0 269.859605186 227.070909199 L 239.894703889 207.803181899 A 106.875 106.875 0 0 1 236.91473024 212.194013315 z" fill="#f79127" stroke="white" stroke-width="1"/>
<path d="M 239.894703889 207.803181899 L 269.859605186 227.070909199 A 142.5 142.5 0 0 0 273.537410015 221.026462159 L 242.653057511 203.269846619 A 106.875 106.875 0 0 1 239.894703889 207.803181899 z" fill="#a2b511" stroke="white" stroke-width="1"/>
<path d="M 242.653057511 203.269846619 L 273.537410015 221.026462159 A 142.5 142.5 0 0 0 277.508543998 213.622489794 L 245.631407998 197.716867345 A 106.875 106.875 0 0 1 242.653057511 203.269846619 z" fill="#8eca02" stroke="white" stroke-width="1"/>
<path d="M 245.631407998 197.716867345 L 277.508543998 213.622489794 A 142.5 142.5 0 0 0 280.151730514 208.023935097 L 247.613797886 193.517951323 A 106.875 106.875 0 0 1 245.631407998 197.716867345 z" fill="#4c1" stroke="white" stroke-width="1"/>
<path d="M 247.613797886 193.517951323 L 280.151730514 208.023935097 A 142.5 142.5 0 0 0 280.68632606 206.809631058 L 248.014744545 192.607223294 A 106.875 106.875 0 0 1 247.613797886 193.517951323 z" fill="#4c1" stroke="white" stroke-width="1"/>
<path d="M 248.014744545 192.607223294 L 280.68632606 206.809631058 A 142.5 142.5 0 0 0 287.022714293 189.128324368 L 252.76703572 179.346243276 A 106.875 106.875 0 0 1 248.014744545 192.607223294 z" fill="#9bc405" stroke="white" stroke-width="1"/>
<path d="M 252.76703572 179.346243276 L 287.022714293 189.128324368 A 142.5 142.5 0 0 0 291.91823822 162.863267876 L 256.438678665 159.647450907 A 106.875 106.875 0 0 1 252.76703572 179.346243276 z" fill="#ebad15" stroke="white" stroke-width="1"/>
<path d="M 256.438678665 159.647450907 L 291.91823822 162.863267876 A 142.5 142.5 0 0 0 292.235762708 158.673972958 L 256.676822031 156.505479718 A 106.875 106.875 0 0 1 256.438678665 159.647450907 z" fill="#4c1" stroke="white" stroke-width="1"/>
<path d="M 256.676822031 156.505479718 L 292.235762708 158.673972958 A 142.5 142.5 0 0 0 292.496900973 150.939794151 L 256.87267573 150.704845613 A 106.875 106.875 0 0 1 256.676822031 156.505479718 z" fill="#6ccb08" stroke="white" stroke-width="1"/>
<path d="M 221.248450487 150.469897075 L 256.87267573 150.704845613 A 106.875 106.875 0 0 0 244.45613769 99.9969633156 L 212.97075846 116.66464221 A 71.25 71.25 0 0 1 221.248450487 150.469897075 z" fill="#78cb06" stroke="white" stroke-width="1"/>
<path d="M 256.87267573 150.704845613 L 292.496900973 150.939794151 A 142.5 142.5 0 0 0 292.439685608 145.854404264 L 256.829764206 146.890803198 A 106.875 106.875 0 0 1 256.87267573 150.704845613 z" fill="#4c1" stroke="white" stroke-width="1"/>
<path d="M 256.829764206 146.890803198 L 292.439685608 145.854404264 A 142.5 142.5 0 0 0 292.156552309 140.112399907 L 256.617414232 142.58429993 A 106.875 106.875 0 0 1 256.829764206 146.890803198 z" fill="#9dc008" stroke="white" stroke-width="1"/>
<path d="M 256.617414232 142.58429993 L 292.156552309 140.112399907 A 142.5 142.5 0 0 0 292.040763546 138.568836841 L 256.53057266 141.426627631 A 106.875 106.875 0 0 1 256.617414232 142.58429993 z" fill="#4c1" stroke="white" stroke-width="1"/>
<path d="M 256.53057266 141.426627631 L 292.040763546 138.568836841 A 142.5 142.5 0 0 0 290.621545647 126.938540814 L 255.466159235 132.703905611 A 106.875 106.875 0 0 1 256.53057266 141.426627631 z" fill="#a2b511" stroke="white" stroke-width="1"/>
<path d="M 255.466159235 132.703905611 L 290.621545647 126.938540814 A 142.5 142.5 0 0 0 288.358191233 115.893388931 L 253.768643425 124.420041698 A 106.875 106.875 0 0 1 255.466159235 132.703905611 z" fill="#5fcc0b" stroke="white" stroke-width="1"/>
<path d="M 253.768643425 124.420041698 L 288.358191233 115.893388931 A 142.5 142.5 0 0 0 285.708862087 106.533291464 L 251.781646565 117.399968598 A 106.875 106.875 0 0 1 253.768643425 124.420041698 z" fill="#63cc0a" stroke="white" stroke-width="1"/>
<path d="M 251.781646565 117.399968598 L 285.708862087 106.533291464 A 142.5 142.5 0 0 0 279.375084233 90.2644362231 L 247.031313175 105.198327167 A 106.875 106.875 0 0 1 251.781646565 117.399968598 z" fill="#57cc0c" stroke="white" stroke-width="1"/>
<path d="M 247.031313175 105.198327167 L 279.375084233 90.2644362231 A 142.5 142.5 0 0 0 275.94151692 83.3292844208 L 244.45613769 99.9969633156 A 106.875 106.875 0 0 1 247.031313175 105.198327167 z" fill="#97ca00" stroke="white" stroke-width="1"/>
<path d="M 181.48537923 133.332321105 L 212.97075846 116.66464221 A 71.25 71.25 0 0 0 193.086786759 93.2541516342 L 171.54339338 121.627075817 A 35.625 35.625 0 0 1 181.48537923 133.332321105 z" fill="#74cb06" stroke="white" stroke-width="1"/>
<path d="M 212.97075846 116.66464221 L 244.45613769 99.9969633156 A 106.875 106.875 0 0 0 242.694361344 96.8020583105 L 211.796240896 114.53470554 A 71.25 71.25 0 0 1 212.97075846 116.66464221 z" fill="#fa882e" stroke="white" stroke-width="1"/>
<path d="M 211.796240896 114.53470554 L 242.694361344 96.8020583105 A 106.875 106.875 0 0 0 241.345097445 94.5172207096 L 210.89673163 113.011480473 A 71.25 71.25 0 0 1 211.796240896 114.53470554 z" fill="#4c1" stroke="white" stroke-width="1"/>
<path d="M 210.89673163 113.011480473 L 241.345097445 94.5172207096 A 106.875 106.875 0 0 0 240.384764031 92.9661499098 L 210.256509354 111.977433273 A 71.25 71.25 0 0 1 210.89673163 113.011480473 z" fill="#ef6a3d" stroke="white" stroke-width="1"/>
<path d="M 210.256509354 111.977433273 L 240.384764031 92.9661499098 A 106.875 106.875 0 0 0 240.029007573 92.406220644 L 210.019338382 111.604147096 A 71.25 71.25 0 0 1 210.256509354 111.977433273 z" fill="#4c1" stroke="white" stroke-width="1"/>
<path d="M 210.019338382 111.604147096 L 240.029007573 92.406220644 A 106.875 106.875 0 0 0 233.977571424 83.8937739489 L 205.985047616 105.929182633 A 71.25 71.25 0 0 1 210.019338382 111.604147096 z" fill="#5bcc0c" stroke="white" stroke-width="1"/>
<path d="M 240.029007573 92.406220644 L 270.038676763 73.208294192 A 142.5 142.5 0 0 0 269.076136577 71.7240541551 L 239.307102433 91.2930406163 A 106.875 106.875 0 0 1 240.029007573 92.406220644 z" fill="#4c1" stroke="white" stroke-width="1"/>
<path d="M 239.307102433 91.2930406163 L 269.076136577 71.7240541551 A 142.5 142.5 0 0 0 266.969995455 68.6103804941 L 237.727496591 88.9577853706 A 106.875 106.875 0 0 1 239.307102433 91.2930406163 z" fill="#4c1" stroke="white" stroke-width="1"/>
<path d="M 237.727496591 88.9577853706 L 266.969995455 68.6103804941 A 142.5 142.5 0 0 0 265.304415086 66.2674384625 L 236.478311315 87.2005788469 A 106.875 106.875 0 0 1 237.727496591 88.9577853706 z" fill="#4c1" stroke="white" stroke-width="1"/>
<path d="M 236.478311315 87.2005788469 L 265.304415086 66.2674384625 A 142.5 142.5 0 0 0 264.782456786 65.5533445655 L 236.08684259 86.6650084241 A 106.875 106.875 0 0 1 236.478311315 87.2005788469 z" fill="#4c1" stroke="white" stroke-width="1"/>
<path d="M 236.08684259 86.6650084241 L 264.782456786 65.5533445655 A 142.5 142.5 0 0 0 263.458257436 63.782404234 L 235.093693077 85.3368031755 A 106.875 106.875 0 0 1 236.08684259 86.6650084241 z" fill="#4c1" stroke="white" stroke-width="1"/>
<path d="M 235.093693077 85.3368031755 L 263.458257436 63.782404234 A 142.5 142.5 0 0 0 261.970095232 61.8583652653 L 233.977571424 83.8937739489 A 106.875 106.875 0 0 1 235.093693077 85.3368031755 z" fill="#a2b710" stroke="white" stroke-width="1"/>
<path d="M 205.985047616 105.929182633 L 233.977571424 83.8937739489 A 106.875 106.875 0 0 0 232.732089696 82.3415418484 L 205.154726464 104.894361232 A 71.25 71.25 0 0 1 205.985047616 105.929182633 z" fill="#4c1" stroke="white" stroke-width="1"/>
<path d="M 205.154726464 104.894361232 L 232.732089696 82.3415418484 A 106.875 106.875 0 0 0 228.375798748 77.3398335008 L 202.250532498 101.559889001 A 71.25 71.25 0 0 1 205.154726464 104.894361232 z" fill="#68cb09" stroke="white" stroke-width="1"/>
<path d="M 232.732089696 82.3415418484 L 260.309452929 59.7887224645 A 142.5 142.5 0 0 0 260.169331488 59.6176543814 L 232.626998616 82.2132407861 A 106.875 106.875 0 0 1 232.732089696 82.3415418484 z" fill="#4c1" stroke="white" stroke-width="1"/>
<path d="M 232.626998616 82.2132407861 L 260.169331488 59.6176543814 A 142.5 142.5 0 0 0 254.501064997 53.1197780011 L 228.375798748 77.3398335008 A 106.875 106.875 0 0 1 232.626998616 82.2132407861 z" fill="#68cb09" stroke="white" stroke-width="1"/>
<path d="M 202.250532498 101.559889001 L 228.375798748 77.3398335008 A 106.875 106.875 0 0 0 214.630180139 64.8812274513 L 193.086786759 93.2541516342 A 71.25 71.25 0 0 1 202.250532498 101.559889001 z" fill="#4c1" stroke="white" stroke-width="1"/>
<path d="M 228.375798748 77.3398335008 L 254.501064997 53.1197780011 A 142.5 142.5 0 0 0 251.754579013 50.239007373 L 226.31593426 75.1792555297 A 106.875 106.875 0 0 1 228.375798748 77.3398335008 z" fill="#4c1" stroke="white" stroke-width="1"/>
<path d="M 226.31593426 75.1792555297 L 251.754579013 50.239007373 A 142.5 142.5 0 0 0 248.60991799 47.1295276865 L 223.957438492 72.8471457649 A 106.875 106.875 0 0 1 226.31593426 75.1792555297 z" fill="#4c1" stroke="white" stroke-width="1"/>
<path d="M 223.957438492 72.8471457649 L 248.60991799 47.1295276865 A 142.5 142.5 0 0 0 245.698431108 44.4156248133 L 221.773823331 70.81171861 A 106.875 106.875 0 0 1 223.957438492 72.8471457649 z" fill="#4c1" stroke="white" stroke-width="1"/>
<path d="M 221.773823331 70.81171861 L 245.698431108 44.4156248133 A 142.5 142.5 0 0 0 244.876336497 43.6762925171 L 221.157252373 70.2572193879 A 106.875 106.875 0 0 1 221.773823331 70.81171861 z" fill="#4c1" stroke="white" stroke-width="1"/>
<path d="M 221.157252373 70.2572193879 L 244.876336497 43.6762925171 A 142.5 142.5 0 0 0 238.445378385 38.2696771579 L 216.334033788 66.2022578684 A 106.875 106.875 0 0 1 221.157252373 70.2572193879 z" fill="#4c1" stroke="white" stroke-width="1"/>
<path d="M 216.334033788 66.2022578684 L 238.445378385 38.2696771579 A 142.5 142.5 0 0 0 236.173573519 36.5083032684 L 214.630180139 64.8812274513 A 106.875 106.875 0 0 1 216.334033788 66.2022578684 z" fill="#4c1" stroke="white" stroke-width="1"/>
<path d="M 171.54339338 121.627075817 L 193.086786759 93.2541516342 A 71.25 71.25 0 0 0 188.837207671 90.2653048865 L 169.418603836 120.132652443 A 35.625 35.625 0 0 1 171.54339338 121.627075817 z" fill="#a4ad17" stroke="white" stroke-width="1"/>
<path d="M 193.086786759 93.2541516342 L 214.630180139 64.8812274513 A 106.875 106.875 0 0 0 208.394784589 60.4884657835 L 188.929856393 90.3256438557 A 71.25 71.25 0 0 1 193.086786759 93.2541516342 z" fill="#a4ac19" stroke="white" stroke-width="1"/>
<path d="M 188.929856393 90.3256438557 L 208.394784589 60.4884657835 A 106.875 106.875 0 0 0 208.255811507 60.3979573297 L 188.837207671 90.2653048865 A 71.25 71.25 0 0 1 188.929856393 90.3256438557 z" fill="#4c1" stroke="white" stroke-width="1"/>
<path d="M 169.418603836 120.132652443 L 188.837207671 90.2653048865 A 71.25 71.25 0 0 0 186.680929483 88.9174991324 L 168.340464742 119.458749566 A 35.625 35.625 0 0 1 169.418603836 120.132652443 z" fill="#afab1c" stroke="white" stroke-width="1"/>
<path d="M 188.837207671 90.2653048865 L 208.255811507 60.3979573297 A 106.875 106.875 0 0 0 208.116698142 60.3076646415 L 188.744465428 90.205109761 A 71.25 71.25 0 0 1 188.837207671 90.2653048865 z" fill="#4c1" stroke="white" stroke-width="1"/>
<path d="M 188.744465428 90.205109761 L 208.116698142 60.3076646415 A 106.875 106.875 0 0 0 205.021394225 58.3762486985 L 186.680929483 88.9174991324 A 71.25 71.25 0 0 1 188.744465428 90.205109761 z" fill="#b4ad1c" stroke="white" stroke-width="1"/>
<path d="M 168.340464742 119.458749566 L 186.680929483 88.9174991324 A 71.25 71.25 0 0 0 186.58609833 88.8606517126 L 168.293049165 119.430325856 A 35.625 35.625 0 0 1 168.340464742 119.458749566 z" fill="#4c1" stroke="white" stroke-width="1"/>
<path d="M 168.293049165 119.430325856 L 186.58609833 88.8606517126 A 71.25 71.25 0 0 0 179.440514978 85.116885264 L 164.720257489 117.558442632 A 35.625 35.625 0 0 1 168.293049165 119.430325856 z" fill="#9ac603" stroke="white" stroke-width="1"/>
<path d="M 186.58609833 88.8606517126 L 204.879147495 58.2909775689 A 106.875 106.875 0 0 0 198.642105909 54.8358725268 L 182.428070606 86.5572483512 A 71.25 71.25 0 0 1 186.58609833 88.8606517126 z" fill="#9bc405" stroke="white" stroke-width="1"/>
<path d="M 204.879147495 58.2909775689 L 223.172196659 27.7213034252 A 142.5 142.5 0 0 0 218.374568236 24.9753287606 L 201.280926177 56.2314965704 A 106.875 106.875 0 0 1 204.879147495 58.2909775689 z" fill="#a4a61d" stroke="white" stroke-width="1"/>
<path d="M 201.280926177 56.2314965704 L 218.374568236 24.9753287606 A 142.5 142.5 0 0 0 217.986216258 24.7637257066 L 200.989662194 56.07279428 A 106.875 106.875 0 0 1 201.280926177 56.2314965704 z" fill="#4c1" stroke="white" stroke-width="1"/>
<path d="M 200.989662194 56.07279428 L 217.986216258 24.7637257066 A 142.5 142.5 0 0 0 214.856141212 23.1144967024 L 198.642105909 54.8358725268 A 106.875 106.875 0 0 1 200.989662194 56.07279428 z" fill="#4c1" stroke="white" stroke-width="1"/>
<path d="M 182.428070606 86.5572483512 L 198.642105909 54.8358725268 A 106.875 106.875 0 0 0 197.902276922 54.4613298676 L 181.934851281 86.3075532451 A 71.25 71.25 0 0 1 182.428070606 86.5572483512 z" fill="#efa41b" stroke="white" stroke-width="1"/>
<path d="M 198.642105909 54.8358725268 L 214.856141212 23.1144967024 A 142.5 142.5 0 0 0 214.067299797 22.7143719945 L 198.050474848 54.5357789959 A 106.875 106.875 0 0 1 198.642105909 54.8358725268 z" fill="#fa7739" stroke="white" stroke-width="1"/>
<path d="M 198.050474848 54.5357789959 L 214.067299797 22.7143719945 A 142.5 142.5 0 0 0 213.869702563 22.6151064901 L 197.902276922 54.4613298676 A 106.875 106.875 0 0 1 198.050474848 54.5357789959 z" fill="#4c1" stroke="white" stroke-width="1"/>
<path d="M 181.934851281 86.3075532451 L 197.902276922 54.4613298676 A 106.875 106.875 0 0 0 197.753963646 54.3871108004 L 181.835975764 86.258073867 A 71.25 71.25 0 0 1 181.934851281 86.3075532451 z" fill="#4c1" stroke="white" stroke-width="1"/>
<path d="M 181.835975764 86.258073867 L 197.753963646 54.3871108004 A 106.875 106.875 0 0 0 194.160772467 52.675327896 L 179.440514978 85.116885264 A 71.25 71.25 0 0 1 181.835975764 86.258073867 z" fill="#7dcb05" stroke="white" stroke-width="1"/>
<path d="M 164.720257489 117.558442632 L 179.440514978 85.116885264 A 71.25 71.25 0 0 0 88.3141257042 114.343087453 L 119.157062852 132.171543727 A 35.625 35.625 0 0 1 164.720257489 117.558442632 z" fill="#9fbc0b" stroke="white" stroke-width="1"/>
<path d="M 179.440514978 85.116885264 L 194.160772467 52.675327896 A 106.875 106.875 0 0 0 92.720909195 59.770451727 L 111.813939463 89.846967818 A 71.25 71.25 0 0 1 179.440514978 85.116885264 z" fill="#97ca00" stroke="white" stroke-width="1"/>
<path d="M 194.160772467 52.675327896 L 208.881029956 20.233770528 A 142.5 142.5 0 0 0 202.778332513 17.6342279246 L 189.583749385 50.7256709434 A 106.875 106.875 0 0 1 194.160772467 52.675327896 z" fill="#4c1" stroke="white" stroke-width="1"/>
<path d="M 189.583749385 50.7256709434 L 202.778332513 17.6342279246 A 142.5 142.5 0 0 0 196.979032252 15.4666564427 L 185.234274189 49.0999923321 A 106.875 106.875 0 0 1 189.583749385 50.7256709434 z" fill="#4c1" stroke="white" stroke-width="1"/>
<path d="M 185.234274189 49.0999923321 L 196.979032252 15.4666564427 A 142.5 142.5 0 0 0 192.359674288 13.9415272973 L 181.769755716 47.9561454729 A 106.875 106.875 0 0 1 185.234274189 49.0999923321 z" fill="#85cb03" stroke="white" stroke-width="1"/>
<path d="M 181.769755716 47.9561454729 L 192.359674288 13.9415272973 A 142.5 142.5 0 0 0 164.239059242 8.21319105117 L 160.679294432 43.6598932884 A 106.875 106.875 0 0 1 181.769755716 47.9561454729 z" fill="#9dc008" stroke="white" stroke-width="1"/>
<path d="M 160.679294432 43.6598932884 L 164.239059242 8.21319105117 A 142.5 142.5 0 0 0 162.698089051 8.06688711066 L 159.523566788 43.550165333 A 106.875 106.875 0 0 1 160.679294432 43.6598932884 z" fill="#4c1" stroke="white" stroke-width="1"/>
<path d="M 159.523566788 43.550165333 L 162.698089051 8.06688711066 A 142.5 142.5 0 0 0 158.949855965 7.78133006454 L 156.712391974 43.3359975484 A 106.875 106.875 0 0 1 159.523566788 43.550165333 z" fill="#4c1" stroke="white" stroke-width="1"/>
<path d="M 156.712391974 43.3359975484 L 158.949855965 7.78133006454 A 142.5 142.5 0 0 0 147.01496823 7.53126804337 L 147.761226172 43.1484510325 A 106.875 106.875 0 0 1 156.712391974 43.3359975484 z" fill="#9cc206" stroke="white" stroke-width="1"/>
<path d="M 147.761226172 43.1484510325 L 147.01496823 7.53126804337 A 142.5 142.5 0 0 0 100.316738668 16.4416848584 L 112.737554001 49.8312636438 A 106.875 106.875 0 0 1 147.761226172 43.1484510325 z" fill="#5fcc0b" stroke="white" stroke-width="1"/>
<path d="M 112.737554001 49.8312636438 L 100.316738668 16.4416848584 A 142.5 142.5 0 0 0 73.6278789266 29.693935636 L 92.720909195 59.770451727 A 106.875 106.875 0 0 1 112.737554001 49.8312636438 z" fill="#b7ae1c" stroke="white" stroke-width="1"/>
<path d="M 111.813939463 89.846967818 L 92.720909195 59.770451727 A 106.875 106.875 0 0 0 86.2982180256 64.1842170794 L 107.53214535 92.7894780529 A 71.25 71.25 0 0 1 111.813939463 89.846967818 z" fill="#81cb04" stroke="white" stroke-width="1"/>
<path d="M 107.53214535 92.7894780529 L 86.2982180256 64.1842170794 A 106.875 106.875 0 0 0 85.369819861 64.8812274513 L 106.913213241 93.2541516342 A 71.25 71.25 0 0 1 107.53214535 92.7894780529 z" fill="#e76241" stroke="white" stroke-width="1"/>
<path d="M 86.2982180256 64.1842170794 L 65.0642907008 35.5789561058 A 142.5 142.5 0 0 0 64.0026450978 36.3747169428 L 85.5019838234 64.7810377071 A 106.875 106.875 0 0 1 86.2982180256 64.1842170794 z" fill="#e05d44" stroke="white" stroke-width="1"/>
<path d="M 85.5019838234 64.7810377071 L 64.0026450978 36.3747169428 A 142.5 142.5 0 0 0 63.8264264813 36.5083032684 L 85.369819861 64.8812274513 A 106.875 106.875 0 0 1 85.5019838234 64.7810377071 z" fill="#4c1" stroke="white" stroke-width="1"/>
<path d="M 106.913213241 93.2541516342 L 85.369819861 64.8812274513 A 106.875 106.875 0 0 0 74.1499563451 74.7069956599 L 99.4333042301 99.8046637733 A 71.25 71.25 0 0 1 106.913213241 93.2541516342 z" fill="#c6b11a" stroke="white" stroke-width="1"/>
<path d="M 85.369819861 64.8812274513 L 63.8264264813 36.5083032684 A 142.5 142.5 0 0 0 59.831523444 39.6555582027 L 82.373642583 67.241668652 A 106.875 106.875 0 0 1 85.369819861 64.8812274513 z" fill="#d9b318" stroke="white" stroke-width="1"/>
<path d="M 82.373642583 67.241668652 L 59.831523444 39.6555582027 A 142.5 142.5 0 0 0 53.8110743102 44.8622780604 L 77.8583057326 71.1467085453 A 106.875 106.875 0 0 1 82.373642583 67.241668652 z" fill="#9fbc0b" stroke="white" stroke-width="1"/>
<path d="M 77.8583057326 71.1467085453 L 53.8110743102 44.8622780604 A 142.5 142.5 0 0 0 53.4852354008 45.1613133697 L 77.6139265506 71.3709850273 A 106.875 106.875 0 0 1 77.8583057326 71.1467085453 z" fill="#4c1" stroke="white" stroke-width="1"/>
<path d="M 77.6139265506 71.3709850273 L 53.4852354008 45.1613133697 A 142.5 142.5 0 0 0 48.8666084602 49.6093275466 L 74.1499563451 74.7069956599 A 106.875 106.875 0 0 1 77.6139265506 71.3709850273 z" fill="#fe7d37" stroke="white" stroke-width="1"/>
<path d="M 99.4333042301 99.8046637733 L 74.1499563451 74.7069956599 A 106.875 106.875 0 0 0 57.4711885563 96.5146311799 L 88.3141257042 114.343087453 A 71.25 71.25 0 0 1 99.4333042301 99.8046637733 z" fill="#acaa1d" stroke="white" stroke-width="1"/>
<path d="M 119.157062852 132.171543727 L 88.3141257042 114.343087453 A 71.25 71.25 0 0 0 82.3335285033 172.311681586 L 116.166764252 161.155840793 A 35.625 35.625 0 0 1 119.157062852 132.171543727 z" fill="#c0b01b" stroke="white" stroke-width="1"/>
<path d="M 88.3141257042 114.343087453 L 57.4711885563 96.5146311799 A 106.875 106.875 0 0 0 50.9888865922 109.762392631 L 83.9925910615 123.174928421 A 71.25 71.25 0 0 1 88.3141257042 114.343087453 z" fill="#74cb06" stroke="white" stroke-width="1"/>
<path d="M 57.4711885563 96.5146311799 L 26.6282514084 78.6861749065 A 142.5 142.5 0 0 0 26.18797547 79.4533304699 L 57.1409816025 97.0899978524 A 106.875 106.875 0 0 1 57.4711885563 96.5146311799 z" fill="#4c1" stroke="white" stroke-width="1"/>
<path d="M 57.1409816025 97.0899978524 L 26.18797547 79.4533304699 A 142.5 142.5 0 0 0 24.1620934201 83.1339303714 L 55.621570065 99.8504477786 A 106.875 106.875 0 0 1 57.1409816025 97.0899978524 z" fill="#8eca02" stroke="white" stroke-width="1"/>
<path d="M 55.621570065 99.8504477786 L 24.1620934201 83.1339303714 A 142.5 142.5 0 0 0 21.4717776486 88.4634575299 L 53.6038332364 103.847593147 A 106.875 106.875 0 0 1 55.621570065 99.8504477786 z" fill="#78cb06" stroke="white" stroke-width="1"/>
<path d="M 53.6038332364 103.847593147 L 21.4717776486 88.4634575299 A 142.5 142.5 0 0 0 17.9851821229 96.3498568419 L 50.9888865922 109.762392631 A 106.875 106.875 0 0 1 53.6038332364 103.847593147 z" fill="#68cb09" stroke="white" stroke-width="1"/>
<path d="M 83.9925910615 123.174928421 L 50.9888865922 109.762392631 A 106.875 106.875 0 0 0 43.2350746955 154.849365909 L 78.8233831303 153.232910606 A 71.25 71.25 0 0 1 83.9925910615 123.174928421 z" fill="#a2b511" stroke="white" stroke-width="1"/>
<path d="M 50.9888865922 109.762392631 L 17.9851821229 96.3498568419 A 142.5 142.5 0 0 0 14.7712924641 105.06174616 L 48.5784693481 116.29630962 A 106.875 106.875 0 0 1 50.9888865922 109.762392631 z" fill="#4c1" stroke="white" stroke-width="1"/>
<path d="M 48.5784693481 116.29630962 L 14.7712924641 105.06174616 A 142.5 142.5 0 0 0 12.4731101878 112.682382464 L 46.8548326408 122.011786848 A 106.875 106.875 0 0 1 48.5784693481 116.29630962 z" fill="#ecaa17" stroke="white" stroke-width="1"/>
<path d="M 46.8548326408 122.011786848 L 12.4731101878 112.682382464 A 142.5 142.5 0 0 0 12.3008741062 113.323021825 L 46.7256555796 122.492266368 A 106.875 106.875 0 0 1 46.8548326408 122.011786848 z" fill="#4c1" stroke="white" stroke-width="1"/>
<path d="M 46.7256555796 122.492266368 L 12.3008741062 113.323021825 A 142.5 142.5 0 0 0 8.53591222028 132.848852264 L 43.9019341652 137.136639198 A 106.875 106.875 0 0 1 46.7256555796 122.492266368 z" fill="#c6b11a" stroke="white" stroke-width="1"/>
<path d="M 43.9019341652 137.136639198 L 8.53591222028 132.848852264 A 142.5 142.5 0 0 0 7.64676626061 156.465821211 L 43.2350746955 154.849365909 A 106.875 106.875 0 0 1 43.9019341652 137.136639198 z" fill="#85cb03" stroke="white" stroke-width="1"/>
<path d="M 78.8233831303 153.232910606 L 43.2350746955 154.849365909 A 106.875 106.875 0 0 0 44.5472924358 167.377919679 L 79.6981949572 161.585279786 A 71.25 71.25 0 0 1 78.8233831303 153.232910606 z" fill="#a2b710" stroke="white" stroke-width="1"/>
<path d="M 43.2350746955 154.849365909 L 7.64676626061 156.465821211 A 142.5 142.5 0 0 0 8.39468422251 165.943166046 L 43.7960131669 161.957374534 A 106.875 106.875 0 0 1 43.2350746955 154.849365909 z" fill="#cfb319" stroke="white" stroke-width="1"/>
<path d="M 43.7960131669 161.957374534 L 8.39468422251 165.943166046 A 142.5 142.5 0 0 0 8.44484691942 166.382571115 L 43.8336351896 162.286928336 A 106.875 106.875 0 0 1 43.7960131669 161.957374534 z" fill="#4c1" stroke="white" stroke-width="1"/>
<path d="M 43.8336351896 162.286928336 L 8.44484691942 166.382571115 A 142.5 142.5 0 0 0 9.39638991435 173.170559572 L 44.5472924358 167.377919679 A 106.875 106.875 0 0 1 43.8336351896 162.286928336 z" fill="#4c1" stroke="white" stroke-width="1"/>
<path d="M 79.6981949572 161.585279786 L 44.5472924358 167.377919679 A 106.875 106.875 0 0 0 45.6461642056 173.076884105 L 80.4307761371 165.384589403 A 71.25 71.25 0 0 1 79.6981949572 161.585279786 z" fill="#e76241" stroke="white" stroke-width="1"/>
<path d="M 44.5472924358 167.377919679 L 9.39638991435 173.170559572 A 142.5 142.5 0 0 0 10.056489038 176.871243731 L 45.0423667785 170.153432798 A 106.875 106.875 0 0 1 44.5472924358 167.377919679 z" fill="#e05d44" stroke="white" stroke-width="1"/>
<path d="M 45.0423667785 170.153432798 L 10.056489038 176.871243731 A 142.5 142.5 0 0 0 10.7667281101 180.337204862 L 45.5750460826 172.752903646 A 106.875 106.875 0 0 1 45.0423667785 170.153432798 z" fill="#fa7739" stroke="white" stroke-width="1"/>
<path d="M 45.5750460826 172.752903646 L 10.7667281101 180.337204862 A 142.5 142.5 0 0 0 10.8615522741 180.769178807 L 45.6461642056 173.076884105 A 106.875 106.875 0 0 1 45.5750460826 172.752903646 z" fill="#4c1" stroke="white" stroke-width="1"/>
<path d="M 80.4307761371 165.384589403 L 45.6461642056 173.076884105 A 106.875 106.875 0 0 0 45.7914152164 173.724175063 L 80.5276101443 165.816116709 A 71.25 71.25 0 0 1 80.4307761371 165.384589403 z" fill="#4c1" stroke="white" stroke-width="1"/>
<path d="M 80.5276101443 165.816116709 L 45.7914152164 173.724175063 A 106.875 106.875 0 0 0 48.5002927549 183.467522379 L 82.3335285033 172.311681586 A 71.25 71.25 0 0 1 80.5276101443 165.816116709 z" fill="#e05d44" stroke="white" stroke-width="1"/>
<path d="M 45.7914152164 173.724175063 L 11.0552202886 181.632233417 A 142.5 142.5 0 0 0 11.1540622736 182.06330577 L 45.8655467052 174.047479327 A 106.875 106.875 0 0 1 45.7914152164 173.724175063 z" fill="#4c1" stroke="white" stroke-width="1"/>
<path d="M 45.8655467052 174.047479327 L 11.1540622736 182.06330577 A 142.5 142.5 0 0 0 11.883348059 185.071932604 L 46.4125110442 176.303949453 A 106.875 106.875 0 0 1 45.8655467052 174.047479327 z" fill="#e05d44" stroke="white" stroke-width="1"/>
<path d="M 46.4125110442 176.303949453 L 11.883348059 185.071932604 A 142.5 142.5 0 0 0 13.3475325541 190.402390287 L 47.5106494156 180.301792716 A 106.875 106.875 0 0 1 46.4125110442 176.303949453 z" fill="#e05d44" stroke="white" stroke-width="1"/>
<path d="M 47.5106494156 180.301792716 L 13.3475325541 190.402390287 A 142.5 142.5 0 0 0 14.6670570066 194.623363172 L 48.5002927549 183.467522379 A 106.875 106.875 0 0 1 47.5106494156 180.301792716 z" fill="#e05d44" stroke="white" stroke-width="1"/>
<path d="M 116.166764252 161.155840793 L 82.3335285033 172.311681586 A 71.25 71.25 0 0 0 82.3682329373 172.416658626 L 116.184116469 161.208329313 A 35.625 35.625 0 0 1 116.166764252 161.155840793 z" fill="#4c1" stroke="white" stroke-width="1"/>
<path d="M 116.184116469 161.208329313 L 82.3682329373 172.416658626 A 71.25 71.25 0 0 0 98.0133274232 198.723181078 L 124.006663712 174.361590539 A 35.625 35.625 0 0 1 116.184116469 161.208329313 z" fill="#c3b11b" stroke="white" stroke-width="1"/>
<path d="M 82.3682329373 172.416658626 L 48.5523494059 183.62498794 A 106.875 106.875 0 0 0 58.0153726284 204.415934728 L 88.6769150856 186.277289819 A 71.25 71.25 0 0 1 82.3682329373 172.416658626 z" fill="#d3b319" stroke="white" stroke-width="1"/>
<path d="M 88.6769150856 186.277289819 L 58.0153726284 204.415934728 A 106.875 106.875 0 0 0 58.2696942846 204.84356515 L 88.8464628564 186.562376767 A 71.25 71.25 0 0 1 88.6769150856 186.277289819 z" fill="#4c1" stroke="white" stroke-width="1"/>
<path d="M 88.8464628564 186.562376767 L 58.2696942846 204.84356515 A 106.875 106.875 0 0 0 63.9623245241 213.401766724 L 92.6415496828 192.267844483 A 71.25 71.25 0 0 1 88.8464628564 186.562376767 z" fill="#5bcc0c" stroke="white" stroke-width="1"/>
<path d="M 92.6415496828 192.267844483 L 63.9623245241 213.401766724 A 106.875 106.875 0 0 0 72.0199911348 223.084771618 L 98.0133274232 198.723181078 A 71.25 71.25 0 0 1 92.6415496828 192.267844483 z" fill="#fd8035" stroke="white" stroke-width="1"/>
<path d="M 124.006663712 174.361590539 L 98.0133274232 198.723181078 A 71.25 71.25 0 0 0 128.029863541 217.778135147 L 139.014931771 183.889067573 A 35.625 35.625 0 0 1 124.006663712 174.361590539 z" fill="#6ccb08" stroke="white" stroke-width="1"/>
<path d="M 98.0133274232 198.723181078 L 72.0199911348 223.084771618 A 106.875 106.875 0 0 0 90.4296553161 238.733531764 L 110.286436877 209.155687842 A 71.25 71.25 0 0 1 98.0133274232 198.723181078 z" fill="#4c1" stroke="white" stroke-width="1"/>
<path d="M 72.0199911348 223.084771618 L 46.0266548464 247.446362157 A 142.5 142.5 0 0 0 70.3893754132 268.187979308 L 90.2920315599 238.640984481 A 106.875 106.875 0 0 1 72.0199911348 223.084771618 z" fill="#4c1" stroke="white" stroke-width="1"/>
<path d="M 90.2920315599 238.640984481 L 70.3893754132 268.187979308 A 142.5 142.5 0 0 0 70.5728737548 268.311375685 L 90.4296553161 238.733531764 A 106.875 106.875 0 0 1 90.2920315599 238.640984481 z" fill="#4c1" stroke="white" stroke-width="1"/>
<path d="M 110.286436877 209.155687842 L 90.4296553161 238.733531764 A 106.875 106.875 0 0 0 112.970815541 250.255199981 L 125.313877028 216.836799988 A 71.25 71.25 0 0 1 110.286436877 209.155687842 z" fill="#97ca00" stroke="white" stroke-width="1"/>
<path d="M 90.4296553161 238.733531764 L 70.5728737548 268.311375685 A 142.5 142.5 0 0 0 96.298646163 281.993994545 L 109.723984622 248.995495909 A 106.875 106.875 0 0 1 90.4296553161 238.733531764 z" fill="#70cb07" stroke="white" stroke-width="1"/>
<path d="M 109.723984622 248.995495909 L 96.298646163 281.993994545 A 142.5 142.5 0 0 0 96.7085572484 282.160024703 L 110.031417936 249.120018527 A 106.875 106.875 0 0 1 109.723984622 248.995495909 z" fill="#4c1" stroke="white" stroke-width="1"/>
<path d="M 110.031417936 249.120018527 L 96.7085572484 282.160024703 A 142.5 142.5 0 0 0 100.627754055 283.673599975 L 112.970815541 250.255199981 A 106.875 106.875 0 0 1 110.031417936 249.120018527 z" fill="#f36f3b" stroke="white" stroke-width="1"/>
<path d="M 125.313877028 216.836799988 L 112.970815541 250.255199981 A 106.875 106.875 0 0 0 113.282142797 250.369639769 L 125.521428531 216.913093179 A 71.25 71.25 0 0 1 125.313877028 216.836799988 z" fill="#4c1" stroke="white" stroke-width="1"/>
<path d="M 125.521428531 216.913093179 L 113.282142797 250.369639769 A 106.875 106.875 0 0 0 117.044795312 251.66720272 L 128.029863541 217.778135147 A 71.25 71.25 0 0 1 125.521428531 216.913093179 z" fill="#4c1" stroke="white" stroke-width="1"/>
<path d="M 139.014931771 183.889067573 L 128.029863541 217.778135147 A 71.25 71.25 0 0 0 150.0 221.25 L 150.0 185.625 A 35.625 35.625 0 0 1 139.014931771 183.889067573 z" fill="#e05d44" stroke="white" stroke-width="1"/>
<path d="M 128.029863541 217.778135147 L 117.044795312 251.66720272 A 106.875 106.875 0 0 0 124.218806416 253.718829932 L 132.812537611 219.145886621 A 71.25 71.25 0 0 1 128.029863541 217.778135147 z" fill="#9ac603" stroke="white" stroke-width="1"/>
<path d="M 132.812537611 219.145886621 L 124.218806416 253.718829932 A 106.875 106.875 0 0 0 135.286475483 255.857346563 L 140.190983655 220.571564375 A 71.25 71.25 0 0 1 132.812537611 219.145886621 z" fill="#dcb317" stroke="white" stroke-width="1"/>
<path d="M 140.190983655 220.571564375 L 135.286475483 255.857346563 A 106.875 106.875 0 0 0 137.58951933 256.15199289 L 141.72634622 220.76799526 A 71.25 71.25 0 0 1 140.190983655 220.571564375 z" fill="#4c1" stroke="white" stroke-width="1"/>
<path d="M 141.72634622 220.76799526 L 137.58951933 256.15199289 A 106.875 106.875 0 0 0 140.559029802 256.457191898 L 143.706019868 220.971461265 A 71.25 71.25 0 0 1 141.72634622 220.76799526 z" fill="#4c1" stroke="white" stroke-width="1"/>
<path d="M 143.706019868 220.971461265 L 140.559029802 256.457191898 A 106.875 106.875 0 0 0 150.0 256.875 L 150.0 221.25 A 71.25 71.25 0 0 1 143.706019868 220.971461265 z" fill="#e05d44" stroke="white" stroke-width="1"/>
</svg>